<?xml version="1.0" encoding="utf-8"?>
<!-- Generator: Adobe Illustrator 27.5.0, SVG Export Plug-In . SVG Version: 6.00 Build 0)  -->
<svg version="1.1" xmlns="http://www.w3.org/2000/svg" xmlns:xlink="http://www.w3.org/1999/xlink" x="0px" y="0px"
	 viewBox="0 0 500 500" style="enable-background:new 0 0 500 500;" xml:space="preserve">
<g id="Background_Simple">
	<g>
		<path style="fill:#92E3A9;" d="M471.189,262.658c-10.692,39.893-36.083,84.393-76.248,100.695
			c-60.687,24.636-63.329,75.709-175.673,81.753c-17.516,0.944-33.876,0.035-49.065-2.462c-8.165-1.342-15.995-3.153-23.474-5.389
			C78.823,417.038,39.143,362.028,30.473,301.326c-11.416-79.836,40.878-123.417,75.099-149.281
			c34.222-25.864,69.746-116.783,180.142-123.593c16.832-1.031,33.79-0.341,50.431,2.503c37.985,6.475,77.746,25.035,102.721,55.343
			c1.875,2.277,3.68,4.618,5.423,7.013C478.314,140.168,485.768,208.271,471.189,262.658z"/>
		<path style="opacity:0.7;fill:#FFFFFF;" d="M471.189,262.658c-10.692,39.893-36.083,84.393-76.248,100.695
			c-60.687,24.636-63.329,75.709-175.673,81.753c-17.516,0.944-33.876,0.035-49.065-2.462c-8.165-1.342-15.995-3.153-23.474-5.389
			C78.823,417.038,39.143,362.028,30.473,301.326c-11.416-79.836,40.878-123.417,75.099-149.281
			c34.222-25.864,69.746-116.783,180.142-123.593c16.832-1.031,33.79-0.341,50.431,2.503c37.985,6.475,77.746,25.035,102.721,55.343
			c1.875,2.277,3.68,4.618,5.423,7.013C478.314,140.168,485.768,208.271,471.189,262.658z"/>
	</g>
</g>
<g id="Graphics">
	<path style="opacity:0.3;fill:none;stroke:#000000;stroke-miterlimit:10;" d="M88.36,110.729v-5.666
		c0-11.187-7.442-15.146-15.047-15.146c-7.754,0-14.879,5.7-14.879,15.146v5.666h-2.118v31.38h33.995v-31.38H88.36z M74.317,127.975
		v5.685h-3.22v-5.685c-1.572-0.637-2.683-2.174-2.683-3.975c0-2.371,1.922-4.293,4.293-4.293c2.371,0,4.293,1.922,4.293,4.293
		C77,125.801,75.889,127.337,74.317,127.975z M83.649,110.729H62.977v-5.666c0-5.699,4.637-10.336,10.336-10.336
		c5.699,0,10.336,3.899,10.336,10.336V110.729z"/>
	<g>
		<path style="opacity:0.3;fill:none;stroke:#000000;stroke-miterlimit:10;" d="M208.299,78.577h-96.354
			c-7.442,0-13.475-6.033-13.475-13.475v0c0-7.442,6.033-13.475,13.475-13.475h96.354c7.442,0,13.475,6.033,13.475,13.475v0
			C221.774,72.544,215.741,78.577,208.299,78.577z"/>
		<g style="opacity:0.3;">
			<path d="M124.109,63.848l2.809,3.101l-1.351,1.008l-2.095-3.685l-2.067,3.685l-1.351-1.008l2.783-3.101L118.728,63l0.503-1.618
				l3.87,1.697l-0.477-4.188h1.696l-0.45,4.188l3.87-1.669l0.503,1.616L124.109,63.848z"/>
			<path d="M134.576,63.848l2.809,3.101l-1.352,1.008l-2.095-3.685l-2.067,3.685l-1.352-1.008l2.783-3.101L129.195,63l0.503-1.618
				l3.87,1.697l-0.477-4.188h1.697l-0.45,4.188l3.87-1.669l0.503,1.616L134.576,63.848z"/>
			<path d="M145.044,63.848l2.809,3.101l-1.352,1.008l-2.095-3.685l-2.068,3.685l-1.352-1.008l2.784-3.101L139.663,63l0.503-1.618
				l3.87,1.697l-0.477-4.188h1.697l-0.45,4.188l3.87-1.669l0.503,1.616L145.044,63.848z"/>
			<path d="M155.511,63.848l2.809,3.101l-1.352,1.008l-2.095-3.685l-2.068,3.685l-1.352-1.008l2.784-3.101L150.13,63l0.503-1.618
				l3.871,1.697l-0.477-4.188h1.697l-0.45,4.188l3.87-1.669l0.503,1.616L155.511,63.848z"/>
			<path d="M165.979,63.848l2.809,3.101l-1.352,1.008l-2.095-3.685l-2.067,3.685l-1.352-1.008l2.783-3.101L160.598,63l0.503-1.618
				l3.87,1.697l-0.477-4.188h1.697l-0.45,4.188l3.87-1.669l0.503,1.616L165.979,63.848z"/>
			<path d="M176.446,63.848l2.809,3.101l-1.351,1.008l-2.095-3.685l-2.067,3.685l-1.352-1.008l2.783-3.101L171.065,63l0.503-1.618
				l3.87,1.697l-0.477-4.188h1.697l-0.45,4.188l3.87-1.669l0.503,1.616L176.446,63.848z"/>
			<path d="M186.915,63.848l2.809,3.101l-1.352,1.008l-2.095-3.685l-2.068,3.685l-1.351-1.008l2.783-3.101L181.533,63l0.503-1.618
				l3.87,1.697l-0.477-4.188h1.697l-0.45,4.188l3.87-1.669l0.503,1.616L186.915,63.848z"/>
			<path d="M197.382,63.848l2.809,3.101l-1.351,1.008l-2.095-3.685l-2.068,3.685l-1.352-1.008l2.784-3.101L192,63l0.503-1.618
				l3.87,1.697l-0.477-4.188h1.697l-0.45,4.188l3.87-1.669l0.503,1.616L197.382,63.848z"/>
		</g>
	</g>
	<g>
		<path style="opacity:0.3;fill:none;stroke:#000000;stroke-miterlimit:10;" d="M83.705,235.442
			c-0.889-1.536-2.134-2.409-3.437-2.409H78V231c1.619-1.905,2.666-4.801,2.666-7.773c0-5.1-3.069-9.235-6.855-9.235
			s-6.855,4.135-6.855,9.235c0,2.857,0.963,5.648,2.475,7.552v2.255h-3.032c-1.336,0-2.612,0.872-3.524,2.409l-4.108,6.922h13.901
			h1.523h13.52L83.705,235.442z"/>
		
			<ellipse transform="matrix(0.3827 -0.9239 0.9239 0.3827 -167.3265 209.9326)" style="opacity:0.3;fill:none;stroke:#000000;stroke-miterlimit:10;" cx="73.43" cy="230.177" rx="21.518" ry="21.518"/>
	</g>
</g>
<g id="Arrows">
	<g style="opacity:0.2;">
		<path d="M234.327,323.748c-37.254-20.806-62.505-60.629-62.505-106.244c0-67.054,54.552-121.606,121.606-121.606
			c8.373,0,16.545,0.868,24.445,2.489l-3.104,10.401l34.556-8.223l-24.4-25.814l-2.962,9.927c-9.205-1.976-18.749-3.03-28.536-3.03
			c-74.912,0-135.857,60.945-135.857,135.857c0,52.476,29.909,98.094,73.574,120.715l-8.595-14.242L234.327,323.748z"/>
		<path d="M343.561,91.236l10.674,11.293l-13.109,3.12c43.413,18.583,73.908,61.723,73.908,111.855
			c0,67.053-54.552,121.606-121.606,121.606c-12.239,0-24.057-1.827-35.207-5.207l4.222-7.652l-35.514,0.689l18.353,30.412
			l5.915-10.719c13.299,4.361,27.492,6.729,42.23,6.729c74.912,0,135.857-60.945,135.857-135.857
			C429.285,160.289,393.732,111.226,343.561,91.236z"/>
	</g>
</g>
<g id="Device_2">
	<g>
		<g>
			<g>
				<path style="fill:#92E3A9;stroke:#263238;stroke-linecap:round;stroke-linejoin:round;stroke-miterlimit:10;" d="
					M454.028,69.228l-22.899-4.37l-0.039,0.078c-1.143,2.311-3.006,3.597-4.734,3.268l-0.994-0.19
					c-1.728-0.33-2.986-2.212-3.198-4.781l-0.007-0.087l-22.899-4.37c-6.378-1.217-12.535,2.966-13.752,9.344l-29.703,150.71
					c-0.698,3.66,1.702,7.193,5.362,7.891l64.613,12.33c3.66,0.698,7.193-1.702,7.891-5.362l29.703-150.71
					C464.589,76.602,460.406,70.445,454.028,69.228z"/>
				<path style="fill:#FFFFFF;stroke:#263238;stroke-linecap:round;stroke-linejoin:round;stroke-miterlimit:10;" d="M462.73,86.344
					l0.642-3.365c1.217-6.378-2.966-12.535-9.344-13.752l-22.899-4.37l-0.039,0.078c-1.143,2.311-3.006,3.597-4.734,3.268
					l-0.994-0.19c-1.728-0.33-2.986-2.212-3.198-4.781l-0.007-0.087l-22.899-4.37c-6.378-1.217-12.535,2.966-13.752,9.344
					l-0.642,3.365L462.73,86.344z"/>
				<g>
					<g>
						<path style="fill:#707070;stroke:#263238;stroke-linecap:round;stroke-linejoin:round;stroke-miterlimit:10;" d="
							M457.711,134.604l2.793-14.634l-1.324-0.253l8.325-38.685c1.217-6.378-2.967-12.535-9.344-13.752l-62.029-11.837
							c-6.378-1.217-12.535,2.966-13.752,9.344l-30.534,155.064c-1.217,6.378,2.967,12.535,9.344,13.752l62.029,11.837
							c6.378,1.217,12.535-2.967,13.752-9.344l17.036-89.274l1.324,0.253l1.65-8.647l-1.324-0.253l0.73-3.825L457.711,134.604z
							 M434.916,227.156c-1.217,6.378-7.374,10.561-13.752,9.344l-54.77-10.452c-6.378-1.217-10.561-7.374-9.344-13.752
							l28.456-144.176c1.217-6.378,7.374-10.561,13.752-9.344l22.899,4.37l0.007,0.087c0.212,2.57,1.47,4.451,3.198,4.781
							l0.994,0.19c1.728,0.33,3.591-0.956,4.734-3.268l0.039-0.078l22.899,4.37c6.378,1.217,10.561,7.374,9.344,13.752
							L434.916,227.156z"/>
						<path style="fill:#263238;stroke:#263238;stroke-linecap:round;stroke-linejoin:round;stroke-miterlimit:10;" d="
							M455.834,68.486l-57.982-11.065c-6.757-1.289-13.279,3.143-14.569,9.9l-29.665,150.51c-1.289,6.757,3.143,13.279,9.9,14.569
							l57.982,11.065c6.757,1.289,13.279-3.143,14.569-9.899l29.665-150.51C467.023,76.298,462.591,69.775,455.834,68.486z
							 M434.916,227.156c-1.217,6.378-7.374,10.561-13.752,9.344l-54.77-10.452c-6.378-1.217-10.561-7.374-9.344-13.752
							l28.456-144.176c1.217-6.378,7.374-10.561,13.752-9.344l22.899,4.37l0.007,0.087c0.212,2.57,1.47,4.451,3.198,4.781
							l0.994,0.19c1.728,0.33,3.591-0.956,4.734-3.268l0.039-0.078l22.899,4.37c6.378,1.217,10.561,7.374,9.344,13.752
							L434.916,227.156z"/>
					</g>
					<path style="fill:#707070;" d="M427.384,64.717c0.114-0.599-0.279-1.177-0.877-1.291c-0.599-0.114-1.177,0.278-1.291,0.877
						c-0.114,0.599,0.279,1.177,0.877,1.291C426.691,65.709,427.269,65.316,427.384,64.717z"/>
				</g>
				<g>
					<g>
						<g>
							<path style="fill:#263238;" d="M393.731,62.601c-0.209,1.097-1.517,1.257-1.681,2.093l-0.011,0.057l1.195,0.228l-0.07,0.369
								l-1.596-0.304l0.06-0.312c0.224-1.175,1.5-1.168,1.695-2.192c0.071-0.374-0.016-0.595-0.317-0.653
								c-0.296-0.056-0.467,0.132-0.529,0.454l-0.061,0.322l-0.379-0.072l0.056-0.296c0.106-0.556,0.431-0.877,0.992-0.77
								C393.652,61.633,393.837,62.045,393.731,62.601z"/>
							<path style="fill:#263238;" d="M395.724,62.976l-0.018,0.093c-0.071,0.374-0.272,0.611-0.584,0.664
								c0.285,0.173,0.367,0.474,0.298,0.838l-0.054,0.281c-0.106,0.556-0.435,0.87-0.997,0.763c-0.556-0.106-0.746-0.52-0.64-1.076
								l0.048-0.25l0.379,0.072l-0.053,0.275c-0.063,0.328,0.035,0.551,0.326,0.607c0.296,0.056,0.463-0.111,0.533-0.48l0.054-0.281
								c0.068-0.359-0.05-0.559-0.355-0.628l-0.218-0.042l0.07-0.364l0.239,0.046c0.272,0.041,0.472-0.098,0.532-0.415l0.032-0.167
								c0.071-0.374-0.022-0.591-0.318-0.648c-0.291-0.056-0.465,0.121-0.527,0.449l-0.036,0.187l-0.379-0.072l0.032-0.166
								c0.106-0.556,0.434-0.865,0.99-0.759C395.638,62.012,395.83,62.42,395.724,62.976z"/>
							<path style="fill:#263238;" d="M396.457,63.402l-0.096,0.504l-0.39-0.074l0.096-0.504L396.457,63.402z M396.079,65.382
								l-0.096,0.504l-0.39-0.074l0.096-0.504L396.079,65.382z"/>
							<path style="fill:#263238;" d="M397.215,63.886c0.152-0.176,0.354-0.245,0.598-0.198c0.468,0.089,0.61,0.472,0.511,0.992
								l-0.136,0.712c-0.106,0.556-0.44,0.869-0.996,0.763c-0.556-0.106-0.747-0.52-0.641-1.076l0.047-0.244l0.379,0.072
								l-0.051,0.27c-0.063,0.328,0.035,0.551,0.326,0.606c0.291,0.056,0.464-0.116,0.527-0.444l0.135-0.707
								c0.063-0.327-0.035-0.551-0.326-0.606c-0.223-0.043-0.398,0.053-0.485,0.312l-0.016,0.083l-0.379-0.072l0.485-2.003
								l1.434,0.274l-0.069,0.364l-1.071-0.204L397.215,63.886z"/>
							<path style="fill:#263238;" d="M400.57,63.896l-0.013,0.068l-0.379-0.072l0.018-0.093c0.063-0.328-0.036-0.546-0.332-0.602
								c-0.307-0.059-0.48,0.113-0.554,0.503l-0.156,0.816c0.146-0.231,0.371-0.333,0.662-0.278
								c0.468,0.089,0.611,0.467,0.511,0.992l-0.105,0.551c-0.106,0.556-0.452,0.867-1.008,0.761
								c-0.561-0.107-0.767-0.524-0.661-1.08l0.354-1.856c0.11-0.577,0.439-0.886,1.016-0.776
								C400.484,62.936,400.677,63.34,400.57,63.896z M399.058,65.019l-0.104,0.546c-0.063,0.328,0.035,0.551,0.331,0.607
								c0.291,0.055,0.469-0.115,0.532-0.443l0.104-0.546c0.063-0.328-0.04-0.552-0.331-0.607
								C399.293,64.519,399.12,64.691,399.058,65.019z"/>
						</g>
						<g>
							
								<rect x="438.981" y="71.515" transform="matrix(0.9823 0.1875 -0.1875 0.9823 21.4494 -81.1168)" style="fill:#263238;" width="1.046" height="2.615"/>
							
								<rect x="440.4" y="71.257" transform="matrix(0.9823 0.1874 -0.1874 0.9823 21.4609 -81.3434)" style="fill:#263238;" width="1.046" height="3.139"/>
							
								<rect x="441.805" y="71.15" transform="matrix(0.9823 0.1874 -0.1874 0.9823 21.5005 -81.6052)" style="fill:#263238;" width="1.046" height="3.511"/>
							
								<rect x="443.235" y="70.77" transform="matrix(0.9823 0.1874 -0.1874 0.9823 21.515 -81.8735)" style="fill:#263238;" width="1.046" height="4.157"/>
							<g>
								<g>
									<path style="fill:#263238;" d="M456.609,77.344l-6.164-1.176l0.719-3.767l6.164,1.176L456.609,77.344z M450.853,75.891
										l5.479,1.046l0.588-3.082l-5.479-1.046L450.853,75.891z"/>
								</g>
								<g>
									
										<rect x="451.631" y="73.569" transform="matrix(0.9823 0.1874 -0.1874 0.9823 22.0465 -83.6387)" style="fill:#263238;" width="3.312" height="2.379"/>
								</g>
								<g>
									
										<rect x="456.748" y="75.042" transform="matrix(0.9823 0.1874 -0.1874 0.9823 22.2441 -84.3247)" style="fill:#263238;" width="0.789" height="0.903"/>
								</g>
							</g>
							<g>
								<path style="fill:#263238;" d="M448.341,74.917c-0.04-0.008-0.079-0.026-0.112-0.055c-1.112-0.985-2.073-0.451-2.114-0.428
									c-0.112,0.065-0.255,0.026-0.32-0.085c-0.065-0.112-0.029-0.254,0.083-0.319c0.052-0.031,1.285-0.737,2.662,0.482
									c0.097,0.086,0.106,0.234,0.02,0.331C448.504,74.907,448.419,74.932,448.341,74.917z"/>
							</g>
							<g>
								<path style="fill:#263238;" d="M448.953,74.232c-0.04-0.008-0.079-0.026-0.111-0.055c-1.608-1.425-3.026-0.614-3.041-0.606
									c-0.111,0.066-0.255,0.029-0.321-0.083c-0.066-0.111-0.029-0.255,0.083-0.321c0.018-0.011,1.728-0.989,3.59,0.659
									c0.097,0.086,0.106,0.234,0.02,0.331C449.115,74.221,449.031,74.247,448.953,74.232z"/>
							</g>
							<g>
								<path style="fill:#263238;" d="M449.545,73.416c-0.04-0.008-0.079-0.026-0.112-0.055c-2.036-1.804-3.809-0.81-3.884-0.766
									c-0.112,0.065-0.255,0.027-0.32-0.084c-0.065-0.111-0.028-0.254,0.083-0.32c0.021-0.013,2.132-1.219,4.432,0.82
									c0.097,0.086,0.106,0.234,0.02,0.331C449.708,73.406,449.623,73.431,449.545,73.416z"/>
							</g>
							<g>
								<path style="fill:#263238;" d="M447.575,75.171c-0.061,0.319-0.369,0.528-0.688,0.467c-0.319-0.061-0.528-0.369-0.467-0.688
									c0.061-0.319,0.369-0.528,0.688-0.467C447.426,74.544,447.635,74.852,447.575,75.171z"/>
							</g>
						</g>
					</g>
				</g>
			</g>
			<path style="fill:#FFFFFF;stroke:#263238;stroke-miterlimit:10;" d="M431.786,183.986l-54.268-10.356
				c-2.896-0.553-4.795-3.348-4.242-6.243l8.693-45.551c0.553-2.896,3.348-4.795,6.243-4.243l54.268,10.356
				c2.896,0.553,4.795,3.348,4.242,6.244l-8.693,45.551C437.477,182.639,434.681,184.539,431.786,183.986z"/>
			<g>
				<path style="fill:#263238;" d="M398.24,110.787l-0.698-5.342l0.907,0.173l0.486,4.083l1.966-3.615l0.827,0.158l-2.626,4.708
					l-0.536,2.809l-0.862-0.165L398.24,110.787z"/>
				<path style="fill:#263238;" d="M401.761,108.211c0.229-1.198,0.969-1.857,2.167-1.628c1.208,0.231,1.654,1.116,1.426,2.314
					l-0.773,4.052c-0.226,1.187-0.969,1.857-2.178,1.626c-1.198-0.229-1.641-1.125-1.415-2.312L401.761,108.211z M401.841,112.472
					c-0.137,0.716,0.087,1.188,0.714,1.308c0.638,0.122,1.008-0.237,1.144-0.953l0.79-4.141c0.135-0.705-0.075-1.186-0.713-1.308
					c-0.627-0.12-1.011,0.248-1.145,0.953L401.841,112.472z"/>
				<path style="fill:#263238;" d="M406.23,113.31c-0.135,0.705,0.064,1.184,0.702,1.306c0.627,0.12,0.988-0.252,1.122-0.957
					l1.143-5.988l0.818,0.156l-1.134,5.943c-0.226,1.187-0.927,1.876-2.135,1.646c-1.198-0.229-1.595-1.128-1.368-2.314l1.134-5.943
					l0.861,0.164L406.23,113.31z"/>
				<path style="fill:#263238;" d="M412.625,108.324c1.231,0.235,1.626,0.96,1.404,2.124l-0.122,0.638
					c-0.165,0.862-0.57,1.342-1.282,1.426c0.676,0.349,0.833,0.983,0.673,1.822l-0.233,1.22c-0.066,0.347-0.117,0.673-0.023,0.97
					l-0.884-0.169c-0.058-0.243-0.065-0.453,0.036-0.979l0.235-1.231c0.169-0.884-0.192-1.243-0.92-1.382l-0.615-0.117l-0.639,3.346
					l-0.873-0.167l1.495-7.835L412.625,108.324z M411.696,111.975c0.694,0.132,1.151-0.012,1.313-0.863l0.143-0.75
					c0.135-0.705-0.052-1.124-0.702-1.248l-0.85-0.162l-0.553,2.899L411.696,111.975z"/>
				<path style="fill:#263238;" d="M420.124,111.716l-0.135,0.705l-0.828-0.158l0.143-0.75c0.134-0.705-0.064-1.184-0.702-1.306
					c-0.627-0.12-0.999,0.25-1.134,0.955l-0.79,4.141c-0.135,0.705,0.075,1.186,0.702,1.306c0.638,0.122,0.999-0.25,1.133-0.955
					l0.194-1.018l0.828,0.158l-0.186,0.974c-0.226,1.187-0.935,1.863-2.145,1.632c-1.197-0.228-1.607-1.118-1.381-2.305l0.773-4.052
					c0.226-1.186,0.935-1.863,2.133-1.635C419.941,109.639,420.351,110.53,420.124,111.716z"/>
				<path style="fill:#263238;" d="M420.854,111.855c0.229-1.197,0.969-1.857,2.167-1.628c1.209,0.231,1.655,1.116,1.427,2.314
					l-0.773,4.052c-0.226,1.187-0.969,1.857-2.178,1.626c-1.198-0.229-1.641-1.125-1.415-2.312L420.854,111.855z M420.934,116.116
					c-0.137,0.716,0.087,1.188,0.713,1.308c0.638,0.122,1.009-0.237,1.145-0.953l0.79-4.141c0.135-0.705-0.076-1.186-0.714-1.308
					c-0.626-0.119-1.01,0.248-1.144,0.953L420.934,116.116z"/>
				<path style="fill:#263238;" d="M427.474,111.158c1.22,0.233,1.639,1.078,1.408,2.287l-0.754,3.951
					c-0.228,1.197-0.929,1.829-2.149,1.596l-1.835-0.35l1.495-7.835L427.474,111.158z M426.119,118.196
					c0.627,0.12,1.003-0.215,1.14-0.931l0.769-4.029c0.137-0.716-0.09-1.166-0.728-1.288l-0.94-0.179l-1.192,6.245L426.119,118.196z
					"/>
				<path style="fill:#263238;" d="M432.197,115.655l-0.149,0.783l-1.914-0.365l-0.532,2.787l2.35,0.449l-0.152,0.795l-3.223-0.615
					l1.495-7.835l3.223,0.615l-0.152,0.795l-2.35-0.449l-0.51,2.675L432.197,115.655z"/>
			</g>
			<g>
				<path style="fill:#263238;" d="M392.216,142.534c0.618-0.714,1.438-0.995,2.43-0.806c1.901,0.363,2.479,1.918,2.076,4.029
					l-0.552,2.893c-0.431,2.259-1.79,3.532-4.05,3.101c-2.259-0.431-3.033-2.111-2.602-4.37l0.19-0.993l1.542,0.294l-0.21,1.098
					c-0.254,1.331,0.142,2.238,1.324,2.463c1.183,0.226,1.885-0.472,2.139-1.803l0.548-2.872c0.254-1.331-0.142-2.238-1.325-2.463
					c-0.908-0.173-1.617,0.217-1.971,1.265l-0.064,0.338l-1.541-0.294l1.969-8.138l5.829,1.112l-0.282,1.478l-4.351-0.83
					L392.216,142.534z"/>
				<path style="fill:#263238;" d="M405.844,142.574l-0.052,0.275l-1.542-0.294l0.073-0.38c0.254-1.33-0.146-2.216-1.35-2.446
					c-1.246-0.238-1.948,0.46-2.251,2.044l-0.633,3.315c0.595-0.937,1.506-1.354,2.689-1.128c1.9,0.363,2.483,1.896,2.076,4.029
					l-0.427,2.239c-0.431,2.259-1.832,3.524-4.092,3.093c-2.281-0.435-3.118-2.127-2.687-4.386l1.439-7.539
					c0.447-2.344,1.782-3.6,4.126-3.152C405.493,138.677,406.275,140.314,405.844,142.574z M399.698,147.135l-0.423,2.217
					c-0.254,1.331,0.143,2.238,1.346,2.468c1.182,0.225,1.906-0.468,2.16-1.799l0.423-2.217c0.254-1.33-0.164-2.242-1.346-2.467
					C400.655,145.107,399.952,145.805,399.698,147.135z"/>
				<path style="fill:#263238;" d="M414.059,144.141l-0.052,0.275l-1.542-0.294l0.073-0.38c0.254-1.33-0.146-2.216-1.35-2.446
					c-1.246-0.238-1.948,0.46-2.251,2.044l-0.633,3.315c0.595-0.937,1.506-1.354,2.689-1.128c1.9,0.363,2.483,1.896,2.076,4.029
					l-0.427,2.239c-0.431,2.259-1.832,3.524-4.092,3.093c-2.281-0.435-3.118-2.127-2.687-4.386l1.439-7.539
					c0.447-2.344,1.782-3.6,4.126-3.152C413.707,140.245,414.49,141.882,414.059,144.141z M407.913,148.703l-0.423,2.217
					c-0.254,1.331,0.143,2.238,1.346,2.468c1.182,0.226,1.906-0.468,2.16-1.799l0.423-2.217c0.254-1.33-0.163-2.242-1.345-2.467
					C408.869,146.675,408.167,147.373,407.913,148.703z"/>
				<path style="fill:#263238;" d="M422.269,145.73l-1.439,7.539c-0.447,2.344-1.786,3.621-4.151,3.169
					c-2.259-0.431-3.058-2.094-2.627-4.353l0.052-0.275l1.541,0.294l-0.073,0.381c-0.254,1.33,0.168,2.22,1.35,2.446
					c1.267,0.242,1.969-0.456,2.267-2.018l0.633-3.315c-0.594,0.937-1.501,1.333-2.684,1.107c-1.9-0.363-2.487-1.875-2.08-4.008
					l0.431-2.26c0.431-2.259,1.807-3.507,4.087-3.072C421.859,141.8,422.701,143.471,422.269,145.73z M417.133,144.663l-0.423,2.217
					c-0.254,1.33,0.163,2.242,1.345,2.467c1.204,0.23,1.906-0.468,2.16-1.799l0.423-2.217c0.258-1.352-0.142-2.238-1.345-2.467
					C418.11,142.638,417.391,143.311,417.133,144.663z"/>
				<path style="fill:#263238;" d="M430.643,147.262l-0.089,0.465c-0.286,1.499-1.023,2.497-2.27,2.719
					c1.132,0.719,1.375,1.969,1.093,3.447l-0.21,1.098c-0.435,2.281-1.888,3.47-4.189,3.031c-2.302-0.439-3.215-2.08-2.78-4.361
					l0.21-1.098c0.286-1.499,0.964-2.53,2.307-2.799c-1.115-0.695-1.416-1.868-1.13-3.368l0.089-0.465
					c0.435-2.281,1.901-3.423,4.182-2.988C430.136,143.38,431.078,144.982,430.643,147.262z M425.293,146.285l-0.137,0.718
					c-0.274,1.436,0.301,2.202,1.463,2.424c1.161,0.222,1.979-0.279,2.253-1.715l0.137-0.718c0.29-1.521-0.274-2.35-1.435-2.572
					C426.412,144.201,425.583,144.765,425.293,146.285z M424.072,152.684l-0.238,1.246c-0.29,1.52,0.248,2.367,1.431,2.593
					c1.182,0.225,1.974-0.368,2.285-1.884l0.238-1.246c0.274-1.436-0.226-2.253-1.451-2.487
					C425.112,150.672,424.346,151.248,424.072,152.684z"/>
			</g>
			<line style="fill:none;stroke:#263238;stroke-miterlimit:10;" x1="377.37" y1="186.508" x2="428.426" y2="196.251"/>
			<line style="fill:none;stroke:#263238;stroke-miterlimit:10;" x1="375.469" y1="196.47" x2="426.525" y2="206.214"/>
		</g>
		<g>
			<line style="fill:none;stroke:#263238;stroke-miterlimit:10;" x1="460.162" y1="148.976" x2="472.512" y2="147.076"/>
			<line style="fill:none;stroke:#263238;stroke-miterlimit:10;" x1="458.261" y1="163.227" x2="464.912" y2="165.127"/>
			<line style="fill:none;stroke:#263238;stroke-miterlimit:10;" x1="454.461" y1="175.577" x2="466.812" y2="184.128"/>
		</g>
	</g>
</g>
<g id="Device_1">
	<g>
		<path style="fill:#263238;" d="M341.775,172.701c1.336,0,2.42-1.083,2.42-2.42V150.29c0-1.337-1.083-2.42-2.42-2.42h-0.109v-7.82
			c0-5.327-4.319-9.646-9.646-9.646h-211c-5.327,0-9.646,4.319-9.646,9.646v145.765c0,5.328,4.319,9.646,9.646,9.646h211
			c5.327,0,9.646-4.319,9.646-9.646v-52.297h0.109c1.336,0,2.42-1.083,2.42-2.42v-19.992c0-1.337-1.083-2.42-2.42-2.42h-0.109
			v-2.525h0.109c1.336,0,2.42-1.083,2.42-2.42v-19.992c0-1.337-1.083-2.42-2.42-2.42h-0.109v-8.628H341.775z"/>
		<g>
			<rect x="119.976" y="136.834" style="fill:#92E3A9;stroke:#263238;stroke-miterlimit:10;" width="213.088" height="152.196"/>
		</g>
		<g>
			<rect x="167.293" y="156.4" style="fill:#E3E3E3;stroke:#263238;stroke-miterlimit:10;" width="119.168" height="95.715"/>
			<g>
				<path style="fill:#B2B2B2;" d="M212.127,225.587v0.599h-1.462v2.13h1.796v0.607h-2.463v-5.987h2.463v0.607h-1.796v2.044H212.127
					z"/>
				<path style="fill:#B2B2B2;" d="M213.666,228.923h-0.599v-5.987h0.847l1.386,4.328v-4.328h0.59v5.987h-0.693l-1.531-4.841
					V228.923z"/>
				<path style="fill:#B2B2B2;" d="M217.437,228.923v-5.38h-1.104v-0.607h2.866v0.607h-1.104v5.38H217.437z"/>
				<path style="fill:#B2B2B2;" d="M221.781,225.587v0.599h-1.462v2.13h1.796v0.607h-2.463v-5.987h2.463v0.607h-1.796v2.044H221.781
					z"/>
				<path style="fill:#B2B2B2;" d="M224.063,222.936c0.941,0,1.334,0.479,1.334,1.368v0.488c0,0.658-0.231,1.069-0.744,1.232
					c0.547,0.162,0.752,0.607,0.752,1.249v0.932c0,0.265,0.009,0.514,0.12,0.719h-0.676c-0.077-0.171-0.111-0.325-0.111-0.727
					v-0.941c0-0.676-0.316-0.89-0.872-0.89h-0.47v2.557h-0.667v-5.987H224.063z M223.892,225.758c0.53,0,0.847-0.171,0.847-0.821
					v-0.573c0-0.539-0.197-0.821-0.693-0.821h-0.65v2.215H223.892z"/>
				<path style="fill:#B2B2B2;" d="M230.066,224.382v0.539h-0.633v-0.573c0-0.539-0.214-0.864-0.701-0.864
					c-0.479,0-0.701,0.325-0.701,0.864v3.165c0,0.539,0.222,0.864,0.701,0.864c0.488,0,0.701-0.325,0.701-0.864v-0.778h0.633v0.744
					c0,0.906-0.428,1.505-1.351,1.505c-0.915,0-1.343-0.599-1.343-1.505v-3.096c0-0.907,0.428-1.505,1.343-1.505
					C229.638,222.876,230.066,223.475,230.066,224.382z"/>
				<path style="fill:#B2B2B2;" d="M230.621,224.382c0-0.915,0.453-1.505,1.368-1.505c0.924,0,1.377,0.59,1.377,1.505v3.096
					c0,0.906-0.453,1.505-1.377,1.505c-0.915,0-1.368-0.599-1.368-1.505V224.382z M231.28,227.512c0,0.547,0.23,0.864,0.71,0.864
					c0.488,0,0.71-0.316,0.71-0.864v-3.165c0-0.539-0.222-0.864-0.71-0.864c-0.479,0-0.71,0.325-0.71,0.864V227.512z"/>
				<path style="fill:#B2B2B2;" d="M235.401,222.936c0.932,0,1.36,0.565,1.36,1.488v3.019c0,0.915-0.428,1.48-1.36,1.48h-1.403
					v-5.987H235.401z M235.392,228.316c0.479,0,0.71-0.299,0.71-0.847v-3.079c0-0.547-0.231-0.847-0.719-0.847h-0.718v4.772H235.392
					z"/>
				<path style="fill:#B2B2B2;" d="M239.514,225.587v0.599h-1.462v2.13h1.796v0.607h-2.463v-5.987h2.463v0.607h-1.796v2.044H239.514
					z"/>
			</g>
			<rect x="176.494" y="188.014" style="fill:#FFFFFF;stroke:#263238;stroke-miterlimit:10;" width="100.561" height="11.347"/>
			<rect x="176.494" y="206.013" style="fill:#FFFFFF;stroke:#263238;stroke-miterlimit:10;" width="100.561" height="11.347"/>
			<g>
				<rect x="231.487" y="231.613" style="fill:#FFFFFF;stroke:#263238;stroke-miterlimit:10;" width="9.495" height="11.347"/>
				<rect x="219.403" y="231.613" style="fill:#FFFFFF;stroke:#263238;stroke-miterlimit:10;" width="9.495" height="11.347"/>
				<rect x="207.319" y="231.613" style="fill:#FFFFFF;stroke:#263238;stroke-miterlimit:10;" width="9.494" height="11.347"/>
				<rect x="195.667" y="231.613" style="fill:#FFFFFF;stroke:#263238;stroke-miterlimit:10;" width="9.063" height="11.347"/>
				<rect x="243.571" y="231.613" style="fill:#FFFFFF;stroke:#263238;stroke-miterlimit:10;" width="9.839" height="11.347"/>
			</g>
			<path style="fill:#263238;" d="M231.67,169.389v-2.178c0-3.537-2.877-6.414-6.414-6.414c-3.537,0-6.414,2.877-6.414,6.414v2.178
				h-0.12v12.063h13.068v-12.063H231.67z M225.642,176.019v2.185h-1.238v-2.185c-0.604-0.245-1.031-0.836-1.031-1.528
				c0-0.911,0.739-1.65,1.65-1.65c0.911,0,1.65,0.739,1.65,1.65C226.674,175.183,226.246,175.774,225.642,176.019z M229.229,169.389
				h-7.947v-2.178c0-2.191,1.783-3.973,3.973-3.973c2.191,0,3.973,1.782,3.973,3.973V169.389z"/>
			<g>
				<path style="fill:#B2B2B2;" d="M211.199,195.067c0,0.539,0.214,0.864,0.701,0.864c0.479,0,0.693-0.325,0.693-0.864v-4.576h0.624
					v4.542c0,0.906-0.419,1.514-1.343,1.514c-0.915,0-1.334-0.608-1.334-1.514v-4.542h0.659V195.067z"/>
				<path style="fill:#B2B2B2;" d="M216.467,191.928v0.163h-0.633v-0.197c0-0.539-0.206-0.855-0.684-0.855
					c-0.479,0-0.684,0.316-0.684,0.847c0,1.343,2.01,1.471,2.01,3.156c0,0.907-0.437,1.497-1.352,1.497
					c-0.915,0-1.342-0.59-1.342-1.497v-0.342h0.624v0.376c0,0.539,0.222,0.855,0.701,0.855c0.479,0,0.701-0.316,0.701-0.855
					c0-1.334-2.001-1.463-2.001-3.148c0-0.924,0.428-1.496,1.326-1.496C216.039,190.432,216.467,191.021,216.467,191.928z"/>
				<path style="fill:#B2B2B2;" d="M219.186,193.142v0.599h-1.462v2.13h1.796v0.607h-2.463v-5.987h2.463v0.607h-1.796v2.044H219.186
					z"/>
				<path style="fill:#B2B2B2;" d="M221.468,190.491c0.941,0,1.334,0.479,1.334,1.368v0.488c0,0.658-0.231,1.069-0.744,1.232
					c0.547,0.162,0.752,0.607,0.752,1.249v0.932c0,0.265,0.009,0.513,0.12,0.719h-0.676c-0.077-0.171-0.111-0.325-0.111-0.727
					v-0.941c0-0.676-0.316-0.89-0.872-0.89h-0.47v2.557h-0.668v-5.987H221.468z M221.297,193.314c0.53,0,0.847-0.171,0.847-0.821
					v-0.573c0-0.539-0.197-0.821-0.693-0.821h-0.65v2.215H221.297z"/>
				<path style="fill:#B2B2B2;" d="M225.418,196.478h-0.599v-5.987h0.847l1.386,4.328v-4.328h0.59v5.987h-0.693l-1.531-4.841
					V196.478z"/>
				<path style="fill:#B2B2B2;" d="M229.001,195.272l-0.231,1.206h-0.616l1.146-5.987h0.967l1.146,5.987h-0.667l-0.231-1.206
					H229.001z M229.086,194.699h1.335l-0.676-3.456L229.086,194.699z"/>
				<path style="fill:#B2B2B2;" d="M234.14,196.47h-0.641l-0.992-4.764v4.773h-0.582v-5.987h0.932l0.983,4.781l0.95-4.781h0.932
					v5.987h-0.633v-4.815L234.14,196.47z"/>
				<path style="fill:#B2B2B2;" d="M238.535,193.142v0.599h-1.462v2.13h1.796v0.607h-2.463v-5.987h2.463v0.607h-1.796v2.044H238.535
					z"/>
			</g>
			<g>
				<path style="fill:#B2B2B2;" d="M212.115,211.117l0.906,1.001l-0.436,0.325l-0.676-1.189l-0.667,1.189l-0.436-0.325l0.898-1.001
					l-1.326-0.274l0.162-0.522l1.249,0.547l-0.154-1.351h0.547l-0.145,1.351l1.249-0.539l0.162,0.521L212.115,211.117z"/>
				<path style="fill:#B2B2B2;" d="M215.492,211.117l0.906,1.001l-0.436,0.325l-0.676-1.189l-0.667,1.189l-0.436-0.325l0.898-1.001
					l-1.326-0.274l0.162-0.522l1.249,0.547l-0.154-1.351h0.547l-0.145,1.351l1.249-0.539l0.162,0.521L215.492,211.117z"/>
				<path style="fill:#B2B2B2;" d="M218.869,211.117l0.906,1.001l-0.436,0.325l-0.676-1.189l-0.667,1.189l-0.436-0.325l0.898-1.001
					l-1.326-0.274l0.162-0.522l1.249,0.547l-0.154-1.351h0.547l-0.145,1.351l1.249-0.539l0.162,0.521L218.869,211.117z"/>
				<path style="fill:#B2B2B2;" d="M222.246,211.117l0.906,1.001l-0.436,0.325l-0.676-1.189l-0.667,1.189l-0.436-0.325l0.898-1.001
					l-1.326-0.274l0.162-0.522l1.249,0.547l-0.154-1.351h0.547l-0.145,1.351l1.249-0.539l0.162,0.521L222.246,211.117z"/>
				<path style="fill:#B2B2B2;" d="M225.624,211.117l0.906,1.001l-0.436,0.325l-0.676-1.189l-0.667,1.189l-0.436-0.325l0.898-1.001
					l-1.326-0.274l0.162-0.522l1.249,0.547l-0.154-1.351h0.547l-0.145,1.351l1.249-0.539l0.162,0.521L225.624,211.117z"/>
				<path style="fill:#B2B2B2;" d="M229.001,211.117l0.906,1.001l-0.436,0.325l-0.676-1.189l-0.667,1.189l-0.436-0.325l0.898-1.001
					l-1.326-0.274l0.162-0.522l1.249,0.547l-0.154-1.351h0.547l-0.145,1.351l1.249-0.539l0.162,0.521L229.001,211.117z"/>
				<path style="fill:#B2B2B2;" d="M232.379,211.117l0.906,1.001l-0.436,0.325l-0.676-1.189l-0.667,1.189l-0.436-0.325l0.898-1.001
					l-1.326-0.274l0.162-0.522l1.249,0.547l-0.154-1.351h0.547l-0.145,1.351l1.249-0.539l0.162,0.521L232.379,211.117z"/>
				<path style="fill:#B2B2B2;" d="M235.756,211.117l0.906,1.001l-0.436,0.325l-0.676-1.189l-0.667,1.189l-0.436-0.325l0.898-1.001
					l-1.326-0.274l0.162-0.522l1.249,0.547l-0.154-1.351h0.547l-0.145,1.351l1.249-0.539l0.162,0.521L235.756,211.117z"/>
			</g>
		</g>
	</g>
</g>
<g id="Mug">
	<g>
		<g>
			<ellipse style="fill:#263238;" cx="236.955" cy="423.602" rx="63.968" ry="60.111"/>
			<ellipse style="fill:#FFFFFF;stroke:#263238;stroke-miterlimit:10;" cx="235.613" cy="420.471" rx="63.968" ry="60.111"/>
			<ellipse style="fill:#FFFFFF;stroke:#263238;stroke-miterlimit:10;" cx="235.613" cy="420.471" rx="55.214" ry="51.886"/>
		</g>
		<path style="fill:#263238;" d="M250.909,385.535c-22.161,0-40.126,22.575-40.126,50.422c0,17.965,7.483,33.725,18.74,42.655
			c1.859,0.156,3.738,0.249,5.64,0.249c23.294,0,43.611-11.925,54.455-29.624c0.918-4.233,1.417-8.682,1.417-13.28
			C291.035,408.11,273.07,385.535,250.909,385.535z"/>
		<g>
			<rect x="185.124" y="413.22" style="fill:#FFFFFF;stroke:#263238;stroke-miterlimit:10;" width="26.135" height="6.252"/>
			<ellipse style="fill:#FFFFFF;stroke:#263238;stroke-miterlimit:10;" cx="244.828" cy="416.005" rx="39.855" ry="37.452"/>
			<ellipse style="fill:#263238;stroke:#263238;stroke-miterlimit:10;" cx="244.828" cy="416.005" rx="33.273" ry="31.267"/>
		</g>
		<g>
			<path style="fill:none;stroke:#263238;stroke-miterlimit:10;" d="M230.888,387.332c-0.212-0.52-0.458-1.031-0.743-1.527
				c-3.393-5.904-2.969-13.419-0.424-20.396"/>
			<path style="fill:none;stroke:#FFFFFF;stroke-miterlimit:10;" d="M231.417,399.76c0,0,1.779-6.756-0.53-12.428"/>
			<path style="fill:none;stroke:#263238;stroke-miterlimit:10;" d="M243.292,385.805c-3.393-5.904-2.969-13.419-0.424-20.396"/>
			<path style="fill:none;stroke:#FFFFFF;stroke-miterlimit:10;" d="M244.564,399.76c0,0,2.12-8.051-1.272-13.955"/>
			<path style="fill:none;stroke:#263238;stroke-miterlimit:10;" d="M256.857,386.6c-0.129-0.269-0.268-0.534-0.418-0.795
				c-3.393-5.904-2.969-13.419-0.424-20.396"/>
			<path style="fill:none;stroke:#FFFFFF;stroke-miterlimit:10;" d="M257.711,399.76c0,0,1.937-7.355-0.854-13.16"/>
		</g>
	</g>
</g>
<g id="Right_Hand">
	<g>
		<path style="fill:#263238;stroke:#263238;stroke-miterlimit:10;" d="M384.138,360.241c0,0-1.041,0.057-2.904,0.259
			c-1.766-5.995-7.062-23.74-10.54-32.908c-4.225-11.139-9.987-26.887-13.828-33.417c-3.841-6.53-3.457-10.371-10.755-16.516
			c-7.298-6.146-13.828-3.457-13.828-3.457s-1.152-4.609-8.45-6.914c-7.298-2.305-17.285,2.305-17.285,2.305
			s-1.536-2.689-8.834-1.921c-7.298,0.768-9.987,7.298-9.987,7.298s-14.98-29.96-20.742-32.265
			c-5.762-2.305-11.523,3.457-9.219,8.834c2.305,5.377,19.589,35.338,21.894,42.252c2.305,6.914,7.298,18.437,7.298,18.437
			s-16.516-11.907-21.51-13.06c-4.993-1.152-12.291-1.921-16.517,2.689c-4.225,4.609,5.762,5.762,13.828,13.06
			s21.126,24.199,27.271,34.954c6.146,10.755,19.205,12.676,24.967,18.821c4.055,4.326,9.819,10.36,12.88,13.557
			c-1.929,2.007-2.893,3.344-2.893,3.344l12.676,31.113c0,0,2.689-4.225,13.444-12.676c10.755-8.45,44.172-18.821,44.172-18.821
			L384.138,360.241z"/>
		<g>
			<g>
				<g>
					<path style="fill:#FFFFFF;stroke:#263238;stroke-miterlimit:10;" d="M329.507,376.404c0,0-9.219-9.603-14.98-15.748
						c-5.762-6.146-18.821-8.066-24.967-18.821c-6.146-10.755-19.205-27.656-27.272-34.954c-8.066-7.298-18.053-8.45-13.828-13.06
						c4.225-4.609,11.523-3.841,16.517-2.689c4.993,1.152,21.51,13.06,21.51,13.06s-4.993-11.523-7.298-18.437
						c-2.305-6.914-19.589-36.874-21.894-42.252c-2.305-5.377,3.457-11.139,9.219-8.834c5.762,2.305,20.742,32.265,20.742,32.265
						s2.689-6.53,9.987-7.298c7.298-0.768,8.835,1.921,8.835,1.921s9.987-4.609,17.285-2.305c7.298,2.305,8.45,6.914,8.45,6.914
						s6.53-2.689,13.828,3.457c7.298,6.146,6.914,9.987,10.755,16.517c3.841,6.53,9.603,22.278,13.828,33.417
						c4.225,11.139,11.139,34.954,11.139,34.954l-49.55,26.887L329.507,376.404z"/>
					<line style="fill:none;stroke:#263238;stroke-miterlimit:10;" x1="287.255" y1="266.934" x2="300.699" y2="286.908"/>
					<line style="fill:none;stroke:#263238;stroke-miterlimit:10;" x1="306.077" y1="261.557" x2="318.368" y2="280.762"/>
					<line style="fill:none;stroke:#263238;stroke-miterlimit:10;" x1="331.812" y1="266.166" x2="340.262" y2="281.146"/>
					<line style="fill:none;stroke:#263238;stroke-miterlimit:10;" x1="292.412" y1="321.375" x2="294.169" y2="326.47"/>
					<line style="fill:none;stroke:#263238;stroke-miterlimit:10;" x1="286.487" y1="304.192" x2="291.191" y2="317.833"/>
				</g>
				<line style="fill:none;stroke:#263238;stroke-miterlimit:10;" x1="307.997" y1="291.517" x2="311.07" y2="295.742"/>
				<line style="fill:none;stroke:#263238;stroke-miterlimit:10;" x1="322.209" y1="287.292" x2="325.666" y2="291.901"/>
				<line style="fill:none;stroke:#263238;stroke-miterlimit:10;" x1="341.03" y1="284.987" x2="343.335" y2="292.285"/>
			</g>
			<g>
				<path style="fill:#FFFFFF;stroke:#263238;stroke-miterlimit:10;" d="M324.514,377.556c0,0,8.835-12.291,26.887-18.437
					c18.053-6.146,32.265-6.914,32.265-6.914l11.139,24.967c0,0-33.417,10.371-44.172,18.821
					c-10.755,8.45-13.444,12.676-13.444,12.676L324.514,377.556z"/>
				<path style="fill:#FFFFFF;stroke:#263238;stroke-miterlimit:10;" d="M354.858,460.523c0,0-14.596-36.49-18.437-44.172
					c-3.841-7.682,2.305-11.523,2.305-11.523s8.835-11.907,31.881-21.126c23.046-9.219,24.967-9.603,30.728-3.073
					c5.762,6.53,43.551,79.962,43.551,79.962"/>
			</g>
		</g>
	</g>
</g>
<g id="Left_Hand">
	<g>
		<path style="fill:#263238;stroke:#263238;stroke-miterlimit:10;" d="M115.082,422.128c0,0,5.221-11.195,17.655-17.539
			c12.434-6.343,20.515-9.073,32.413-20.809c11.898-11.736,31.508-22.218,39.594-23.663c8.086-1.445,10.77-4.924,7.286-8.892
			c-3.484-3.968-12.989-4.187-21.455-1.327s-16.287,6.359-16.287,6.359c4.287-8.442,7.14-18.607,11.361-27.081
			c2.995-6.013,7.914-15.934,10.825-21.989c1.9-3.951,7.563-10.531,5.045-14.846c-2.535-4.343-8.588-1.454-11.658,2.673
			c-4.878,6.559-28.749,42.543-28.749,42.543c4.535-9.599,9.069-19.198,13.603-28.797c6.892-14.59,10.178-21.546,9.203-19.482
			c2.011-4.256,5.923-9.955,3.535-14.864c-2.421-4.977-9.431-5.488-12.34-0.749c-3.318,5.408-28.687,53.418-28.687,53.418
			s15.88-41.209,17.909-45.945c2.479-5.784,1.015-10.825-2.642-10.796c-5.315,0.042-7.827,5.926-9.91,9.928
			c0.387-0.563,0.774-1.125,1.161-1.688c-4.969,6.625-8.311,15.331-12.466,22.52c-4.857,8.403-9.886,16.707-15.081,24.905
			c1.021-8.492,4.429-16.447,8.651-23.813c2.548-4.443,13.155-15.354,11.343-20.718c-1.56-4.618-13.193,4.059-19.959,13.531
			c-3.688,5.163-13.352,19.239-16.009,29.14s-21.276,43.627-26.248,53.023c-4.972,9.396-10.942,25.989-10.942,25.989
			L115.082,422.128z"/>
		<path style="fill:#263238;stroke:#263238;stroke-miterlimit:10;" d="M129.266,413.074c0,0-9.575-11.723-27.973-16.744
			c-18.397-5.021-32.63-4.911-32.63-4.911l-9.578,25.606c0,0,33.993,8.291,45.249,16.062c11.256,7.771,14.2,11.822,14.2,11.822
			L129.266,413.074z"/>
		<g>
			<g>
				<path style="fill:#FFFFFF;stroke:#263238;stroke-miterlimit:10;" d="M113.816,417.694c0,0,5.221-11.195,17.655-17.539
					c12.434-6.343,20.515-9.073,32.413-20.809c11.898-11.736,31.508-22.218,39.594-23.663c8.086-1.445,10.77-4.924,7.286-8.892
					c-3.484-3.968-12.989-4.187-21.455-1.327c-8.466,2.859-16.287,6.359-16.287,6.358c4.287-8.442,7.14-18.607,11.361-27.081
					c2.995-6.013,7.914-15.934,10.825-21.989c1.9-3.951,7.563-10.531,5.045-14.846c-2.535-4.343-8.588-1.454-11.658,2.673
					c-4.878,6.559-28.749,42.543-28.749,42.543c4.535-9.599,9.069-19.198,13.603-28.797c6.892-14.59,10.178-21.546,9.203-19.482
					c2.011-4.256,5.923-9.955,3.535-14.864c-2.422-4.977-9.431-5.488-12.34-0.749c-3.318,5.408-28.686,53.418-28.686,53.418
					s15.88-41.209,17.909-45.945c2.479-5.784,1.015-10.825-2.642-10.797c-5.315,0.042-7.827,5.926-9.91,9.928
					c0.387-0.563,0.774-1.125,1.161-1.688c-4.969,6.625-8.311,15.331-12.466,22.52c-4.857,8.403-9.886,16.707-15.081,24.905
					c1.021-8.492,4.429-16.447,8.651-23.813c2.548-4.444,13.155-15.354,11.343-20.718c-1.56-4.618-13.193,4.06-19.959,13.531
					c-3.688,5.163-13.352,19.239-16.009,29.14c-2.658,9.901-21.276,43.627-26.248,53.023c-4.972,9.396-10.942,25.989-10.942,25.989
					L113.816,417.694z"/>
				<line style="fill:none;stroke:#263238;stroke-miterlimit:10;" x1="145.162" y1="322.65" x2="140.575" y2="331.916"/>
				<line style="fill:none;stroke:#263238;stroke-miterlimit:10;" x1="159.846" y1="333.124" x2="156.268" y2="337.762"/>
				<line style="fill:none;stroke:#263238;stroke-miterlimit:10;" x1="173.022" y1="351.824" x2="168.425" y2="358.521"/>
				<line style="fill:none;stroke:#263238;stroke-miterlimit:10;" x1="149.242" y1="347.423" x2="148.873" y2="351.406"/>
				<line style="fill:none;stroke:#263238;stroke-miterlimit:10;" x1="137.782" y1="340.148" x2="137.797" y2="344.001"/>
				<line style="fill:none;stroke:#263238;stroke-miterlimit:10;" x1="120.924" y1="332.123" x2="121.849" y2="338.67"/>
			</g>
			<g>
				<path style="fill:#FFFFFF;stroke:#263238;stroke-miterlimit:10;" d="M127.999,408.641c0,0-9.575-11.723-27.973-16.744
					c-18.397-5.021-32.63-4.911-32.63-4.911l-9.578,25.606c0,0,33.993,8.291,45.249,16.062c11.256,7.771,14.2,11.822,14.2,11.822
					L127.999,408.641z"/>
				<path style="fill:#FFFFFF;stroke:#263238;stroke-miterlimit:10;" d="M112.765,464.008c0,0,2.382-8.008,5.742-15.913
					c3.36-7.904-3.011-11.359-3.011-11.359s-9.552-11.34-33.123-19.12s-25.511-8.045-30.859-1.172
					c-5.348,6.873-22.557,48.176-22.557,48.176"/>
			</g>
		</g>
	</g>
</g>
</svg>
